<svg width="32" height="32" viewBox="0 0 32 32" fill="none" xmlns="http://www.w3.org/2000/svg">
  <defs>
    <linearGradient id="faviconGradient" x1="0%" y1="0%" x2="100%" y2="100%">
      <stop offset="0%" stop-color="#3B82F6" />
      <stop offset="100%" stop-color="#1E40AF" />
    </linearGradient>
  </defs>
  
  <!-- Background Circle -->
  <circle cx="16" cy="16" r="15" fill="url(#faviconGradient)" />
  <circle cx="16" cy="16" r="14" fill="white" fill-opacity="0.1" />
  
  <!-- Simplified Hand Shape -->
  <g transform="translate(16, 16)">
    <!-- Palm -->
    <path d="M-5 -2 C-5 -5, -2 -8, 0 -8 C2 -8, 5 -5, 5 -2 L5 3 C5 6, 2 8, 0 8 C-2 8, -5 6, -5 3 Z" fill="white" fill-opacity="0.95" />
    
    <!-- Three Fingers -->
    <rect x="-4" y="-8" width="2" height="6" rx="1" fill="white" />
    <rect x="-1" y="-9" width="2" height="7" rx="1" fill="white" />
    <rect x="2" y="-8" width="2" height="6" rx="1" fill="white" />
    
    <!-- AI dots -->
    <circle cx="-2" cy="0" r="1" fill="#3B82F6" />
    <circle cx="0" cy="2" r="1" fill="#3B82F6" />
    <circle cx="2" cy="0" r="1" fill="#3B82F6" />
  </g>
  
  <!-- Number 3 -->
  <text x="16" y="24" text-anchor="middle" fill="white" font-size="10" font-weight="bold" opacity="0.3" font-family="Arial">3</text>
</svg>